<svg width="31" height="30" viewBox="0 0 31 30" fill="none" xmlns="http://www.w3.org/2000/svg">
<g clip-path="url(#clip0_19_232)">
<path d="M21.202 10.2062H9.79801C4.38688 10.2062 0 14.6358 0 20.1021C0 25.5684 4.38688 30 9.79801 30H21.202C26.6131 30 31 25.5684 31 20.1021C31 14.6358 26.6131 10.2062 21.202 10.2062ZM20.9884 28.8651C16.199 28.8651 12.3157 24.9422 12.3157 20.1041C12.3157 15.2659 16.199 11.343 20.9884 11.343C25.7777 11.343 29.661 15.2659 29.661 20.1041C29.661 24.9422 25.7777 28.8651 20.9884 28.8651Z" fill="#34C759"/>
<path d="M19.8459 5.85553C19.8459 7.10215 20.1663 8.27171 20.729 9.2852C17.9939 8.80928 15.9129 6.40081 15.9129 3.501C15.9129 3.13684 15.9454 2.78038 16.0102 2.43356C16.5443 2.26978 17.1127 2.18115 17.7001 2.18115C18.711 2.18115 19.6628 2.44319 20.4906 2.90177C20.0767 3.79965 19.8459 4.79965 19.8459 5.85553Z" fill="#34C759"/>
<path d="M27.5363 3.50096C27.5363 6.15029 25.8006 8.38921 23.4145 9.11946C23.0044 9.2447 22.5772 9.32755 22.1328 9.35645H22.1309C21.4118 8.37958 20.9865 7.16763 20.9865 5.85549C20.9865 5.04239 21.1505 4.26782 21.4461 3.56262C22.2796 1.57803 24.1622 0.154143 26.3919 0C27.1109 0.976879 27.5363 2.18882 27.5363 3.50096Z" fill="#34C759"/>
</g>
<defs>
<clipPath id="clip0_19_232">
<rect width="31" height="30" fill="white"/>
</clipPath>
</defs>
</svg>
